<svg width="390" height="324" viewBox="0 0 390 324" fill="none" xmlns="http://www.w3.org/2000/svg">
<path opacity="0.15" d="M359.21 106.024C326.183 107.58 293.092 107.308 260.088 105.208C256.176 104.959 253.066 101.304 252.867 96.7669C251.971 76.4258 251.769 60.8916 251.978 41.8972C252.031 37.1223 255.328 33.2358 259.445 33.113C292.732 32.1152 325.991 31.9062 358.601 33.0736C362.612 33.2175 365.86 36.8976 366.051 41.5449C366.812 60.0886 367.39 78.6724 366.543 97.5671C366.337 102.156 363.17 105.838 359.21 106.024Z" fill="#2E2854"/>
<path d="M352.693 98.1411C319.666 99.6967 286.574 99.4246 253.571 97.3246C249.659 97.0755 246.549 93.4205 246.35 88.8838C245.454 68.5428 245.252 53.0085 245.461 34.0141C245.514 29.2392 248.811 25.3528 252.928 25.2299C286.215 24.2322 319.474 24.0231 352.084 25.1905C356.095 25.3344 359.343 29.0145 359.534 33.6618C360.295 52.2056 360.874 70.7894 360.027 89.684C359.82 94.273 356.653 97.9551 352.693 98.1411Z" fill="white"/>
<path d="M352.693 98.1411C319.666 99.6967 286.574 99.4246 253.571 97.3246C249.659 97.0755 246.549 93.4205 246.35 88.8838C245.454 68.5428 245.252 53.0085 245.461 34.0141C245.514 29.2392 248.811 25.3528 252.928 25.2299C286.215 24.2322 319.474 24.0231 352.084 25.1905C356.095 25.3344 359.343 29.0145 359.534 33.6618C360.295 52.2056 360.874 70.7894 360.027 89.684C359.82 94.273 356.653 97.9551 352.693 98.1411Z" stroke="#2E2854" stroke-width="0.585365" stroke-miterlimit="10" stroke-linecap="round" stroke-linejoin="round"/>
<path d="M302.915 41.1395H259.582V44.918H302.915V41.1395Z" fill="#D24D84"/>
<path d="M324.585 41.1394H307.115V44.9179H324.585V41.1394Z" fill="#D24D84"/>
<path d="M259.582 53.2374H347.068" stroke="#2E2854" stroke-width="0.585365" stroke-miterlimit="10" stroke-linecap="round" stroke-linejoin="round"/>
<path d="M259.582 62.3262H347.068" stroke="#2E2854" stroke-width="0.585365" stroke-miterlimit="10" stroke-linecap="round" stroke-linejoin="round"/>
<path d="M259.582 71.4147H347.068" stroke="#2E2854" stroke-width="0.585365" stroke-miterlimit="10" stroke-linecap="round" stroke-linejoin="round"/>
<path d="M259.582 80.5029H313.506" stroke="#2E2854" stroke-width="0.585365" stroke-miterlimit="10" stroke-linecap="round" stroke-linejoin="round"/>
<path opacity="0.15" d="M54.9341 117.939C44.6071 118.674 34.2391 118.623 23.9174 117.791C19.9041 117.466 16.7022 113.782 16.4224 109.129C15.8241 99.1655 15.676 89.4595 15.8025 79.8493C15.8651 75.0853 19.0021 71.1262 23.0938 70.6918C33.3687 69.6018 43.7554 69.4009 54.3575 70.4149C58.2332 70.7848 61.3123 74.338 61.6881 78.8251C62.5392 88.9593 62.8149 99.1098 62.5017 108.995C62.3501 113.79 59.0644 117.645 54.9341 117.939Z" fill="#2E2854"/>
<path d="M50.0464 113.017C39.7194 113.751 29.3514 113.702 19.0297 112.868C15.0164 112.544 11.8145 108.86 11.5347 104.206C10.9364 94.2433 10.7883 84.538 10.9148 74.9271C10.9774 70.1631 14.1144 66.204 18.2061 65.7696C28.481 64.6796 38.8677 64.4793 49.4698 65.4927C53.3449 65.8626 56.4245 69.4158 56.8004 73.9029C57.6515 84.0371 57.9272 94.1876 57.6146 104.073C57.4624 108.868 54.1773 112.724 50.0464 113.017Z" fill="white"/>
<path d="M50.0464 113.017C39.7194 113.751 29.3514 113.702 19.0297 112.868C15.0164 112.544 11.8145 108.86 11.5347 104.206C10.9364 94.2433 10.7883 84.538 10.9148 74.9271C10.9774 70.1631 14.1144 66.204 18.2061 65.7696C28.481 64.6796 38.8677 64.4793 49.4698 65.4927C53.3449 65.8626 56.4246 69.4158 56.8004 73.9029C57.6515 84.0371 57.9272 94.1876 57.6146 104.073C57.4624 108.868 54.1773 112.724 50.0464 113.017Z" stroke="#2E2854" stroke-width="0.585365" stroke-miterlimit="10" stroke-linecap="round" stroke-linejoin="round"/>
<path d="M27.5327 76.1183H21.9478V102.248H27.5327V76.1183Z" fill="#D24D84"/>
<path d="M37.0986 81.0399H31.5137V102.248H37.0986V81.0399Z" fill="#2E2854"/>
<path d="M46.6655 85.9614H41.0806V102.248H46.6655V85.9614Z" fill="#2E2854"/>
<path opacity="0.15" d="M46.5991 281.642C39.3933 281.881 32.1769 281.677 24.9892 281.03C21.1451 280.684 18.1112 277.131 17.8372 272.671C17.2876 263.721 17.1459 254.944 17.3461 246.216C17.4532 241.564 20.6581 237.829 24.6637 237.549C32.2793 237.016 39.9664 237.242 47.757 238.502C51.4846 239.104 54.2937 242.778 54.3833 247.141C54.5636 255.866 54.4413 264.568 54.1134 273.108C53.9332 277.791 50.6405 281.507 46.5991 281.642Z" fill="#2E2854"/>
<path d="M40.9556 276.228C33.7497 276.467 26.5333 276.263 19.3457 275.616C15.5016 275.27 12.4676 271.716 12.1937 267.257C11.644 258.307 11.5024 249.53 11.7025 240.802C11.8097 236.15 15.0145 232.415 19.0202 232.135C26.6358 231.602 34.3228 231.828 42.1134 233.087C45.841 233.689 48.6502 237.364 48.7397 241.726C48.92 250.451 48.7977 259.153 48.4693 267.693C48.289 272.377 44.9969 276.092 40.9556 276.228Z" fill="white"/>
<path d="M40.9556 276.228C33.7497 276.467 26.5333 276.263 19.3457 275.616C15.5016 275.27 12.4676 271.716 12.1937 267.257C11.644 258.307 11.5024 249.53 11.7025 240.802C11.8097 236.15 15.0145 232.415 19.0202 232.135C26.6358 231.602 34.3228 231.828 42.1134 233.087C45.841 233.689 48.6502 237.364 48.7397 241.726C48.92 250.451 48.7977 259.153 48.4693 267.693C48.289 272.377 44.9969 276.092 40.9556 276.228Z" stroke="#2E2854" stroke-width="0.585365" stroke-miterlimit="10" stroke-linecap="round" stroke-linejoin="round"/>
<path d="M21.9092 251.248C21.9092 248.547 23.4112 247.001 25.4026 247.001C27.3929 247.001 28.8961 248.547 28.8961 251.248C28.8961 253.969 27.3929 255.494 25.4026 255.494C23.4112 255.493 21.9092 253.969 21.9092 251.248ZM33.1213 247.219H36.2945L27.3174 262.461H24.1441L33.1213 247.219ZM26.2286 251.248C26.2286 249.788 25.8153 249.353 25.4026 249.353C24.9894 249.353 24.5761 249.789 24.5761 251.248C24.5761 252.706 24.9894 253.142 25.4026 253.142C25.8153 253.141 26.2286 252.706 26.2286 251.248ZM31.5437 258.433C31.5437 255.733 33.0457 254.186 35.0366 254.186C37.028 254.186 38.53 255.733 38.53 258.433C38.53 261.155 37.028 262.679 35.0366 262.679C33.0457 262.679 31.5437 261.155 31.5437 258.433ZM35.8631 258.433C35.8631 256.974 35.4498 256.538 35.0366 256.538C34.6239 256.538 34.2106 256.974 34.2106 258.433C34.2106 259.892 34.6239 260.328 35.0366 260.328C35.4498 260.328 35.8631 259.892 35.8631 258.433Z" fill="#5767BF"/>
<path opacity="0.15" d="M382.068 211.911C376.035 212.111 369.991 211.94 363.973 211.399C360.754 211.109 358.214 208.134 357.985 204.4C357.525 196.906 357.406 189.556 357.574 182.248C357.664 178.353 360.347 175.225 363.702 174.991C370.078 174.545 376.515 174.733 383.038 175.788C386.16 176.292 388.512 179.369 388.587 183.021C388.738 190.327 388.636 197.613 388.361 204.765C388.209 208.686 385.452 211.798 382.068 211.911Z" fill="#2E2854"/>
<path d="M377.343 207.378C371.31 207.578 365.266 207.407 359.248 206.865C356.029 206.575 353.489 203.6 353.259 199.867C352.799 192.372 352.68 185.023 352.848 177.715C352.938 173.82 355.621 170.692 358.976 170.458C365.352 170.011 371.79 170.2 378.313 171.255C381.434 171.759 383.787 174.836 383.862 178.488C384.013 185.794 383.91 193.08 383.636 200.231C383.483 204.152 380.727 207.264 377.343 207.378Z" fill="white"/>
<path d="M377.343 207.378C371.31 207.578 365.266 207.407 359.248 206.865C356.029 206.575 353.489 203.6 353.259 199.867C352.799 192.372 352.68 185.023 352.848 177.715C352.938 173.82 355.621 170.692 358.976 170.458C365.352 170.011 371.79 170.2 378.313 171.255C381.434 171.759 383.787 174.836 383.862 178.488C384.013 185.794 383.91 193.08 383.636 200.231C383.483 204.152 380.727 207.264 377.343 207.378Z" stroke="#2E2854" stroke-width="0.585365" stroke-miterlimit="10" stroke-linecap="round" stroke-linejoin="round"/>
<path d="M368.353 186.481L364.043 177.825L359.733 186.481H362.442V199.865H365.644V186.481H368.353Z" fill="#76C9BF"/>
<path d="M368.353 191.21L372.663 199.865L376.973 191.21H374.263V177.825H371.062V191.21H368.353Z" fill="#D24D84"/>
<path opacity="0.15" d="M260.225 84.8818C250.233 75.2994 234.879 74.1204 223.883 82.0915C212.885 90.0626 207.073 106.582 210.125 121.196C213.175 135.811 224.859 147.42 237.783 148.677C250.706 149.933 263.895 140.742 269.002 126.923C274.11 113.1 271.061 95.2719 260.225 84.8818Z" fill="#2E2854"/>
<path d="M255.987 79.4642C245.995 69.8818 230.641 68.7029 219.645 76.6739C208.647 84.645 202.834 101.164 205.887 115.779C208.937 130.394 220.621 142.003 233.545 143.259C246.468 144.516 259.657 135.324 264.764 121.506C269.873 107.683 266.823 89.8543 255.987 79.4642Z" fill="#F7A145"/>
<path d="M249.268 84.6667C241.162 78.3246 229.575 78.7244 221.809 85.6149C214.045 92.5027 210.683 105.367 213.841 116.096C217.002 126.824 226.446 134.618 236.224 134.562C246 134.503 255.381 126.602 258.447 115.839C261.514 105.072 258.337 91.7622 249.268 84.6667Z" fill="#FF8330"/>
<path d="M237.936 104.761C238.446 104.859 238.954 104.972 239.466 105.1C239.977 105.228 240.475 105.389 240.956 105.581C241.437 105.773 241.893 106.008 242.322 106.285C242.751 106.562 243.134 106.908 243.473 107.318C243.809 107.729 244.092 108.214 244.314 108.773C244.539 109.331 244.688 109.992 244.767 110.753C244.883 111.88 244.83 112.962 244.604 113.999C244.379 115.036 243.987 115.981 243.43 116.835C242.874 117.689 242.161 118.419 241.288 119.028C240.418 119.637 239.393 120.076 238.217 120.347L238.259 122.582C238.273 122.916 238.179 123.233 237.974 123.533C237.771 123.833 237.493 124.006 237.133 124.056L235.382 124.298L235.312 120.586C234.111 120.524 232.946 120.284 231.818 119.869C230.69 119.453 229.718 118.898 228.898 118.204L230.116 115.525C230.22 115.306 230.368 115.113 230.564 114.949C230.76 114.784 230.975 114.685 231.21 114.652C231.457 114.617 231.715 114.657 231.985 114.769C232.258 114.883 232.554 115.023 232.878 115.188C233.202 115.354 233.557 115.522 233.944 115.69C234.329 115.861 234.761 115.984 235.235 116.063L235.114 109.271C234.352 109.135 233.589 108.957 232.823 108.738C232.057 108.519 231.356 108.177 230.715 107.711C230.076 107.246 229.529 106.617 229.08 105.824C228.631 105.032 228.34 104.001 228.209 102.729C228.113 101.791 228.181 100.855 228.419 99.9193C228.655 98.9826 229.05 98.1152 229.607 97.3163C230.164 96.5161 230.879 95.8245 231.754 95.2387C232.626 94.655 233.654 94.2451 234.837 94.0095L234.802 92.0093C234.788 91.6733 234.881 91.3557 235.087 91.057C235.289 90.7584 235.568 90.5846 235.928 90.5351L237.678 90.2928L237.747 93.8229C238.877 93.9077 239.866 94.1616 240.714 94.5871C241.564 95.0107 242.295 95.4885 242.91 96.0166L241.946 98.1553C241.804 98.4763 241.649 98.7179 241.483 98.8795C241.319 99.0403 241.114 99.1381 240.867 99.172C240.714 99.193 240.527 99.1747 240.308 99.1143C240.089 99.0553 239.85 98.9792 239.593 98.8883C239.335 98.7973 239.057 98.7037 238.76 98.6066C238.466 98.5075 238.153 98.4274 237.825 98.3657L237.936 104.761ZM234.92 98.6202C234.456 98.7695 234.074 98.9487 233.768 99.1591C233.463 99.3702 233.221 99.6023 233.044 99.8562C232.87 100.109 232.749 100.382 232.685 100.673C232.621 100.966 232.607 101.265 232.638 101.573C232.71 102.275 232.964 102.815 233.396 103.194C233.83 103.574 234.37 103.869 235.016 104.081L234.92 98.6202ZM238.133 115.77C239.79 115.216 240.524 114.023 240.336 112.196C240.265 111.507 240.022 110.989 239.609 110.643C239.193 110.297 238.666 110.031 238.023 109.842L238.133 115.77Z" fill="#F7A145"/>
<path opacity="0.15" d="M264.764 121.506C267.592 113.854 267.909 104.977 265.8 96.8113C266.576 111.5 261.978 129.127 247.392 136.253C232.41 143.573 220.974 137.474 214.431 132.835C219.577 138.662 226.367 142.562 233.545 143.26C246.468 144.516 259.658 135.325 264.764 121.506Z" fill="#2E2854"/>
<path d="M219.645 76.6739C211.948 82.2524 206.806 92.0194 205.45 102.388C207.331 94.8545 211.665 83.0275 224.668 76.8212C233.681 72.5193 243.783 73.2755 253.18 77.1252C243.278 69.7684 229.66 69.4141 219.645 76.6739Z" fill="#F5B878"/>
<path d="M249.268 84.6667C241.162 78.3246 229.575 78.7244 221.809 85.6149C214.045 92.5027 210.683 105.367 213.841 116.096C217.002 126.824 226.446 134.618 236.224 134.562C246 134.503 255.381 126.602 258.447 115.839C261.514 105.072 258.337 91.7622 249.268 84.6667Z" stroke="#2E2854" stroke-width="0.585365" stroke-miterlimit="10" stroke-linecap="round" stroke-linejoin="round"/>
<path opacity="0.15" d="M375.2 241.648C366.902 230.095 351.998 225.656 339.924 231.142C327.848 236.627 319.51 251.622 320.188 266.638C320.864 281.655 330.504 295.561 343.006 299.557C355.509 303.553 369.932 297.336 377.147 284.845C384.365 272.349 384.2 254.175 375.2 241.648Z" fill="#2E2854"/>
<path d="M371.793 235.838C363.495 224.285 348.591 219.846 336.517 225.333C324.441 230.817 316.103 245.812 316.781 260.829C317.457 275.845 327.097 289.752 339.599 293.748C352.101 297.744 366.525 291.527 373.74 279.036C380.958 266.539 380.793 248.365 371.793 235.838Z" fill="#F7A145"/>
<path d="M364.362 239.515C357.403 231.55 345.951 229.468 337.224 234.582C328.498 239.693 323.15 251.62 324.549 262.84C325.951 274.059 333.995 283.737 343.615 285.77C353.233 287.801 363.708 282.039 368.433 272.114C373.157 262.188 372.149 248.427 364.362 239.515Z" fill="#FF8330"/>
<path d="M364.362 239.515C357.403 231.55 345.951 229.468 337.224 234.582C328.498 239.693 323.15 251.62 324.549 262.84C325.951 274.059 333.995 283.737 343.615 285.77C353.233 287.801 363.708 282.039 368.433 272.114C373.157 262.188 372.149 248.427 364.362 239.515Z" stroke="#2E2854" stroke-width="0.585365" stroke-miterlimit="10" stroke-linecap="round" stroke-linejoin="round"/>
<path d="M350.031 256.845C350.517 257.051 350.998 257.27 351.482 257.505C351.963 257.74 352.427 258.004 352.87 258.295C353.312 258.587 353.722 258.916 354.1 259.28C354.478 259.644 354.8 260.065 355.067 260.541C355.332 261.016 355.534 261.555 355.664 262.151C355.796 262.748 355.838 263.429 355.794 264.194C355.729 265.326 355.504 266.378 355.118 267.35C354.732 268.32 354.196 269.165 353.514 269.887C352.832 270.606 352.015 271.172 351.06 271.584C350.108 271.996 349.031 272.209 347.832 272.224L347.518 274.43C347.479 274.761 347.336 275.053 347.087 275.303C346.84 275.554 346.538 275.666 346.177 275.638L344.419 275.502L344.94 271.838C343.77 271.521 342.662 271.036 341.62 270.387C340.577 269.737 339.71 268.984 339.014 268.127L340.637 265.754C340.774 265.561 340.949 265.404 341.168 265.283C341.387 265.162 341.614 265.111 341.851 265.13C342.1 265.149 342.347 265.242 342.594 265.411C342.844 265.58 343.113 265.781 343.405 266.013C343.697 266.244 344.019 266.486 344.373 266.734C344.725 266.984 345.129 267.198 345.583 267.376L346.543 260.674C345.816 260.378 345.093 260.04 344.376 259.662C343.658 259.283 343.022 258.796 342.466 258.202C341.912 257.608 341.475 256.873 341.16 255.997C340.844 255.123 340.722 254.047 340.795 252.77C340.849 251.828 341.065 250.921 341.448 250.053C341.829 249.183 342.355 248.414 343.029 247.748C343.704 247.08 344.515 246.553 345.469 246.164C346.42 245.777 347.495 245.594 348.695 245.615L348.978 243.641C349.017 243.307 349.16 243.016 349.409 242.766C349.656 242.516 349.957 242.405 350.319 242.433L352.077 242.568L351.584 246.053C352.681 246.377 353.613 246.839 354.379 247.438C355.147 248.036 355.79 248.661 356.31 249.312L355.023 251.207C354.832 251.492 354.641 251.697 354.453 251.82C354.266 251.943 354.049 251.995 353.8 251.976C353.647 251.965 353.466 251.906 353.26 251.8C353.054 251.695 352.832 251.569 352.593 251.425C352.353 251.281 352.095 251.129 351.819 250.97C351.546 250.81 351.251 250.665 350.938 250.534L350.031 256.845ZM348.043 250.165C347.563 250.213 347.159 250.308 346.825 250.449C346.492 250.592 346.217 250.767 346.002 250.979C345.79 251.191 345.628 251.433 345.519 251.705C345.409 251.98 345.347 252.27 345.33 252.58C345.289 253.285 345.453 253.87 345.817 254.336C346.184 254.801 346.667 255.207 347.268 255.554L348.043 250.165ZM348.477 267.708C350.193 267.517 351.104 266.503 351.21 264.666C351.249 263.974 351.093 263.414 350.741 262.984C350.387 262.556 349.912 262.181 349.31 261.858L348.477 267.708Z" fill="#F7A145"/>
<path opacity="0.15" d="M373.74 279.035C377.736 272.117 379.457 263.46 378.681 254.983C377.109 269.585 369.79 285.93 354.322 289.818C338.433 293.812 328.162 285.374 322.467 279.418C326.6 286.244 332.654 291.528 339.599 293.747C352.101 297.743 366.525 291.526 373.74 279.035Z" fill="#2E2854"/>
<path d="M336.516 225.332C328.065 229.171 321.458 237.672 318.478 247.574C321.523 240.571 327.662 229.872 341.43 226.55C350.972 224.247 360.781 227.148 369.405 232.939C360.842 223.593 347.513 220.336 336.516 225.332Z" fill="#F5B878"/>
<mask id="mask0_873_2175" style="mask-type:luminance" maskUnits="userSpaceOnUse" x="41" y="0" width="247" height="303">
<path d="M287.275 284.525C258.367 298.408 224.976 301.815 193.196 302.193C153.977 302.66 113.604 299.369 78.1626 279.892C64.643 272.461 51.95 262.236 41.2612 249.913V0.15332H287.276V284.525H287.275Z" fill="white"/>
</mask>
<g mask="url(#mask0_873_2175)">
<path opacity="0.15" d="M282.811 170.367C282.903 169.564 283.047 168.842 282.901 168.153C282.755 167.465 282.218 166.831 281.61 166.908C281.165 166.963 280.815 167.365 280.535 167.771C280.293 168.123 280.084 168.501 279.892 168.892C279.875 168.876 279.858 168.863 279.841 168.847C279.944 168.368 280.041 167.888 280.13 167.415C280.232 166.874 280.456 166.124 280.285 165.365C280.116 164.607 279.616 163.904 278.951 163.767C278.341 163.64 277.717 164.012 277.3 164.544C277.216 164.651 277.143 164.767 277.071 164.884C277.083 164.812 277.099 164.74 277.11 164.667C277.267 163.598 276.684 162.269 275.866 161.958C275.204 161.706 274.479 161.987 273.933 162.508C273.709 162.453 273.472 162.435 273.232 162.442C273.704 158.473 274.087 154.504 273.995 150.522C273.975 149.736 273.929 148.913 273.575 148.242C273.221 147.571 272.461 147.123 271.847 147.454C271.343 147.726 271.109 148.392 270.924 148.999C269.5 153.659 268.283 158.401 267.264 163.2L266.529 163.297C265.427 163.442 264.256 163.62 263.403 164.442C262.5 165.313 262.149 166.714 261.842 168.029C260.824 172.415 259.805 176.802 258.786 181.188C258.691 181.148 258.597 181.103 258.502 181.062C257.841 182.727 257.175 184.405 256.496 186.085C253.04 194.624 249.224 203.217 243.787 210.44C241.213 213.861 237.852 217.142 233.942 216.981C231.242 216.871 228.749 215.067 226.999 212.682C225.248 210.296 224.147 207.367 223.224 204.422C217.91 187.479 217.457 168.07 208.267 153.531C205.002 148.363 200.788 144.129 196.098 140.714C193.361 138.721 190.462 137.007 187.495 135.55C184.862 134.258 182.167 133.167 179.438 132.195L179.448 132.183L167.958 124.237C168.001 121.168 168.044 118.101 168.087 115.032C170.786 114.564 173.421 113.639 175.877 112.234C181.039 109.283 185.326 104.319 188.22 98.5509C190.847 99.0206 193.646 98.1185 195.787 96.2513C198.348 94.0169 199.994 90.5398 200.611 86.8916C201.018 84.4909 200.996 81.9429 200.227 79.6644C199.459 77.3852 197.878 75.4128 195.862 74.6974C195.54 74.5834 195.206 74.5189 194.87 74.4775C195.893 70.9128 196.814 67.3033 197.277 63.7881C198.135 57.2688 198.073 50.476 196.252 44.2296C192.44 31.1633 180.861 22.1632 168.987 21.4974C157.113 20.8316 145.426 27.7852 137.803 38.3694C132.752 39.6882 127.907 46.2672 126.527 53.3145C125.293 59.6071 126.271 66.1535 127.499 72.2838C125.682 72.4087 123.872 73.118 122.393 74.3784C118.889 77.3662 117.53 83.145 118.869 87.9456C120.208 92.7464 123.97 96.3986 128.202 97.562C131.516 98.4728 135.044 97.9387 138.179 96.3627C139.861 100.414 142.103 104.104 144.984 107.153C148.117 110.467 151.935 112.817 156.012 114.139C155.905 116.753 155.799 119.368 155.693 121.983L143.055 127.087C143.058 127.09 143.06 127.092 143.063 127.094C132.054 128.255 121.337 131.66 111.476 137.027C100.28 143.121 90.1859 151.737 82.0178 162.438C74.5145 172.266 68.5017 183.966 66.368 196.862C63.6695 213.169 67.5604 230.653 76.2818 243.819C83.5005 254.716 93.8726 262.599 105.244 266.482C105.224 279.681 105.395 292.738 105.858 305.622C106.08 306.498 138.527 307.158 165.656 307.557C185.192 307.844 201.972 307.996 201.972 307.996C202.808 286.779 203.027 265.53 202.643 244.295C205.4 247.214 208.623 249.561 212.097 251.122C221.02 255.131 231.277 254.276 240.065 249.885C248.853 245.495 256.225 237.779 261.787 228.745C267.35 219.713 271.19 209.385 274.098 198.807C273.829 198.567 273.552 198.339 273.28 198.103C274.266 195.947 275.121 193.71 275.802 191.399C275.471 191.136 275.143 190.892 274.813 190.638C277.741 185.867 279.943 180.504 281.296 174.861C282.101 173.532 282.629 171.978 282.811 170.367ZM100.188 228.652C97.685 225.06 97.0183 220.195 97.0008 215.577C96.9569 204.017 100.621 192.538 106.947 183.628C106.841 187.297 106.735 190.968 106.63 194.624C106.256 207.611 105.899 220.515 105.639 233.313C103.549 232.187 101.627 230.718 100.188 228.652Z" fill="#2E2854"/>
</g>
<mask id="mask1_873_2175" style="mask-type:luminance" maskUnits="userSpaceOnUse" x="41" y="0" width="247" height="303">
<path d="M287.275 284.525C258.367 298.408 224.976 301.815 193.196 302.193C153.977 302.66 113.604 299.369 78.1626 279.892C64.643 272.461 51.95 262.236 41.2612 249.913V0.15332H287.276V284.525H287.275Z" fill="white"/>
</mask>
<g mask="url(#mask1_873_2175)">
<path d="M146.381 111.67C146.151 119.815 145.921 127.96 145.69 136.107C145.69 136.107 157.782 135.183 158.329 135.086C158.343 126.935 158.356 118.784 158.37 110.633L146.381 111.67Z" fill="#E8614E"/>
<path d="M146.117 120.997C149.127 121.928 153.523 122.648 158.352 121.341C158.358 117.772 158.364 114.202 158.369 110.633L146.381 111.67C146.293 114.779 146.205 117.889 146.117 120.997Z" fill="#D15046"/>
<path d="M179.995 77.7202C181.217 75.7253 183.626 74.9597 185.652 75.6412C187.679 76.3226 189.285 78.2686 190.082 80.5342C190.88 82.7998 190.933 85.3471 190.555 87.7546C189.984 91.413 188.38 94.9173 185.844 97.1944C183.309 99.4709 179.813 100.39 176.772 99.2116L179.995 77.7202Z" fill="#E8614E"/>
<path d="M182.145 84.4335C183.807 78.1267 186.157 71.2416 186.934 64.7088C187.712 58.1759 187.566 51.3852 185.666 45.1693C181.69 32.1681 169.992 23.3629 158.101 22.8959C146.212 22.429 134.602 29.5781 127.106 40.2885C122.068 41.6915 117.301 48.3512 116.007 55.4209C114.712 62.4907 116.195 69.8332 117.691 76.552C118.026 82.2996 119.474 87.9562 122.958 93.9311C142.32 100.782 163.083 99.9426 182.145 84.4335Z" fill="#2E2854"/>
<path d="M123.923 77.196C120.975 73.484 115.602 73.5057 112.132 76.5519C108.663 79.598 107.374 85.3985 108.773 90.1768C110.173 94.9544 113.983 98.5436 118.232 99.6357C122.48 100.727 127.05 99.4673 130.684 96.692L123.923 77.196Z" fill="#E8614E"/>
<path d="M113.841 86.5659C115.563 84.4042 118.398 83.5388 120.815 84.4361" stroke="#2E2854" stroke-width="0.585365" stroke-miterlimit="10" stroke-linecap="round" stroke-linejoin="round"/>
<path d="M117.262 84.3046C117.581 86.7976 118.556 89.1752 120.034 91.0268" stroke="#2E2854" stroke-width="0.585365" stroke-miterlimit="10" stroke-linecap="round" stroke-linejoin="round"/>
<path d="M182.129 82.5249C182.018 79.0308 181.256 75.5672 179.912 72.4375C174.56 75.5882 168.469 76.7088 162.816 75.3065C157.161 73.9049 151.998 69.9954 148.618 64.556C147.695 67.9565 144.787 70.8058 141.427 71.8613C138.066 72.9181 134.315 72.1599 131.46 69.8495C131.586 72.4151 131.183 75.2923 130.512 78.0832C130.278 79.0545 129.961 80.0957 129.226 80.6346C128.27 81.3351 126.939 80.8694 126.153 79.9274C125.368 78.9839 125.003 77.6855 123.921 77.1968C124.187 88.9586 127.547 101.142 135.142 108.945C143.418 117.447 156.272 119.34 166.119 113.508C175.967 107.677 182.509 94.4849 182.129 82.5249Z" fill="#E8614E"/>
<path d="M177.392 101.385C177.148 100.918 176.865 100.476 176.536 100.077C174.537 97.6528 171.157 96.9388 168.549 98.3899C165.942 99.8411 164.307 103.345 164.687 106.671C164.953 108.991 166.187 111.097 167.875 112.367C171.711 109.645 174.965 105.792 177.392 101.385Z" fill="#D15046"/>
<path d="M142.562 109.415C143.947 106.469 143.523 102.502 141.49 100.037C139.491 97.6133 136.11 96.8993 133.502 98.3505C132.04 99.1643 130.885 100.624 130.218 102.335C131.606 104.762 133.242 106.991 135.144 108.944C136.528 110.366 138.042 111.599 139.647 112.645C140.863 111.921 141.906 110.809 142.562 109.415Z" fill="#D15046"/>
<path d="M158.069 81.2055C159.305 82.567 160.302 84.2184 160.984 86.03L157.967 86.7168" stroke="#2E2854" stroke-width="0.585365" stroke-miterlimit="10" stroke-linecap="round" stroke-linejoin="round"/>
<path d="M138.344 83.0638C139.609 81.7946 141.301 81.1131 142.972 81.2007C144.644 81.2882 146.276 82.1428 147.438 83.5389" stroke="#2E2854" stroke-width="0.585365" stroke-miterlimit="10" stroke-linecap="round" stroke-linejoin="round"/>
<path d="M174.16 83.5172C172.936 82.1943 171.267 81.4403 169.594 81.4559C167.921 81.4715 166.262 82.2554 165.057 83.6007" stroke="#2E2854" stroke-width="0.585365" stroke-miterlimit="10" stroke-linecap="round" stroke-linejoin="round"/>
<path d="M147.275 93.6772C149.849 95.5668 152.934 96.5028 155.975 96.3182C159.017 96.1329 162 94.8277 164.389 92.6367" stroke="#2E2854" stroke-width="0.585365" stroke-miterlimit="10" stroke-linecap="round" stroke-linejoin="round"/>
<path d="M265.482 191.28C269.318 185.176 271.949 178.06 273.116 170.63C270.227 167.411 267.194 165.379 263.948 164.039C264.463 159.41 264.941 154.782 264.777 150.148C264.748 149.363 264.691 148.541 264.33 147.875C263.967 147.211 263.2 146.776 262.59 147.117C262.089 147.397 261.863 148.067 261.685 148.677C259.928 154.698 258.502 160.847 257.421 167.077L253.225 184.768L265.482 191.28Z" fill="#E8614E"/>
<path d="M263.948 164.039C264.463 159.409 264.941 154.782 264.777 150.148C264.748 149.363 264.691 148.541 264.329 147.875C263.967 147.21 263.2 146.775 262.59 147.117C262.089 147.397 261.863 148.066 261.685 148.677C259.928 154.698 258.502 160.847 257.42 167.077" stroke="#2E2854" stroke-width="0.585365" stroke-miterlimit="10" stroke-linecap="round" stroke-linejoin="round"/>
<path d="M273.844 169.843C273.67 171.565 273.107 173.232 272.225 174.634C272.034 174.937 271.823 175.233 271.545 175.423C271.267 175.613 270.907 175.682 270.619 175.513C270.241 175.291 270.097 174.756 270.025 174.271C269.666 171.836 270.228 169.237 271.534 167.285C271.808 166.875 272.154 166.467 272.599 166.404C273.206 166.317 273.75 166.942 273.906 167.628C274.062 168.314 273.926 169.038 273.844 169.843Z" fill="#E8614E"/>
<path d="M273.844 169.843C273.67 171.565 273.107 173.232 272.225 174.634C272.034 174.937 271.823 175.233 271.545 175.423C271.267 175.613 270.907 175.682 270.619 175.513C270.241 175.291 270.097 174.756 270.025 174.271C269.666 171.836 270.228 169.237 271.534 167.285C271.808 166.875 272.154 166.467 272.599 166.404C273.206 166.317 273.75 166.942 273.906 167.628C274.062 168.314 273.926 169.038 273.844 169.843Z" stroke="#2E2854" stroke-width="0.585365" stroke-miterlimit="10" stroke-linecap="round" stroke-linejoin="round"/>
<path d="M271.125 166.936C270.662 169.57 270.081 172.436 268.247 174.081C267.973 174.328 267.655 174.547 267.308 174.544C266.909 174.539 266.548 174.227 266.342 173.831C266.137 173.434 266.065 172.965 266.035 172.503C265.89 170.26 266.637 168.082 267.37 166C267.605 165.332 267.847 164.653 268.258 164.113C268.67 163.574 269.289 163.193 269.901 163.309C270.569 163.435 271.076 164.129 271.256 164.884C271.434 165.639 271.22 166.394 271.125 166.936Z" fill="#E8614E"/>
<path d="M271.125 166.936C270.662 169.57 270.081 172.436 268.247 174.081C267.973 174.328 267.655 174.547 267.308 174.544C266.909 174.539 266.548 174.227 266.342 173.831C266.137 173.434 266.065 172.965 266.035 172.503C265.89 170.26 266.637 168.082 267.37 166C267.605 165.332 267.847 164.653 268.258 164.113C268.67 163.574 269.289 163.193 269.901 163.309C270.569 163.435 271.076 164.129 271.256 164.884C271.434 165.639 271.22 166.394 271.125 166.936Z" stroke="#2E2854" stroke-width="0.585365" stroke-miterlimit="10" stroke-linecap="round" stroke-linejoin="round"/>
<path d="M268.069 164.239C267.699 166.992 266.696 169.627 265.191 171.799C264.833 172.317 264.347 172.855 263.779 172.765C263.361 172.699 263.031 172.287 262.887 171.827C262.743 171.366 262.753 170.863 262.78 170.374C262.875 168.655 263.159 166.956 263.516 165.284C263.724 164.314 263.969 163.319 264.51 162.543C265.053 161.765 265.966 161.253 266.79 161.551C267.614 161.849 268.214 163.168 268.069 164.239Z" fill="#E8614E"/>
<path d="M268.069 164.239C267.699 166.992 266.696 169.627 265.191 171.799C264.833 172.317 264.347 172.855 263.779 172.765C263.361 172.699 263.031 172.287 262.887 171.827C262.743 171.366 262.753 170.863 262.78 170.374C262.875 168.655 263.159 166.956 263.516 165.284C263.724 164.314 263.969 163.319 264.51 162.543C265.053 161.765 265.966 161.253 266.79 161.551C267.614 161.849 268.214 163.168 268.069 164.239Z" stroke="#2E2854" stroke-width="0.585365" stroke-miterlimit="10" stroke-linecap="round" stroke-linejoin="round"/>
<path d="M249.819 181.607C250.824 177.024 251.829 172.44 252.833 167.857C253.123 166.537 253.457 165.13 254.35 164.245C255.194 163.408 256.363 163.211 257.464 163.047L263.558 162.142C264.302 162.033 265.177 161.977 265.669 162.63C266.104 163.208 266.02 164.135 265.643 164.764C265.267 165.394 264.667 165.789 264.072 166.125C262.183 167.196 260.159 167.902 258.003 169.059C259.595 169.179 260.976 170.496 261.787 172.087C262.599 173.68 262.937 175.529 263.238 177.345L253.224 184.767L249.819 181.607Z" fill="#E8614E"/>
<path d="M250.116 180.252C251.022 176.12 251.928 171.989 252.833 167.857C253.123 166.537 253.457 165.13 254.35 164.244C255.194 163.408 256.363 163.211 257.464 163.047L263.559 162.142C264.302 162.032 265.177 161.977 265.669 162.63C266.104 163.208 266.02 164.135 265.644 164.764C265.267 165.394 264.667 165.789 264.072 166.125C262.184 167.196 260.159 167.902 258.003 169.059C259.595 169.179 260.976 170.496 261.787 172.087C262.599 173.68 262.937 175.528 263.238 177.345" stroke="#2E2854" stroke-width="0.585365" stroke-miterlimit="10" stroke-linecap="round" stroke-linejoin="round"/>
<path d="M262.964 201.223C264.693 198.025 266.082 194.581 267.091 190.993C261.223 186.462 255.546 183.343 249.652 180.945C249.011 182.621 248.365 184.31 247.706 186.001L262.964 201.223Z" fill="white"/>
<path d="M185.699 228.024C187.674 238.889 195.105 247.916 204.084 251.776C213.063 255.635 223.316 254.608 232.055 250.071C240.795 245.533 248.076 237.695 253.53 228.569C258.984 219.444 262.699 209.053 265.477 198.428C260.045 193.718 253.887 189.846 247.706 186C244.354 194.596 240.641 203.253 235.291 210.566C232.757 214.029 229.435 217.367 225.519 217.271C222.817 217.206 220.3 215.445 218.518 213.088C216.737 210.733 215.599 207.822 214.638 204.893C209.111 188.04 208.417 168.641 199.041 154.256C195.71 149.145 191.441 144.981 186.706 141.645L185.699 228.024Z" fill="#5767BF"/>
<path opacity="0.15" d="M232.055 250.071C240.795 245.534 248.076 237.695 253.529 228.57C255.203 225.77 256.711 222.849 258.081 219.841C249.593 229.04 236.432 239.686 221.454 238.911C202.092 237.908 190.709 206.786 186.133 190.838L185.7 228.025C187.675 238.889 195.106 247.917 204.085 251.776C213.062 255.636 223.316 254.608 232.055 250.071Z" fill="#2E2854"/>
<path d="M250.214 194.771C249.096 194.19 247.629 194.746 247.036 195.989C246.442 197.233 246.822 198.98 247.86 199.734C248.9 200.488 250.432 200.111 251.106 198.924C251.779 197.737 251.679 195.534 250.214 194.771Z" fill="#2E2854"/>
<path d="M185.699 228.024C187.674 238.889 195.105 247.916 204.084 251.776C213.063 255.635 223.316 254.608 232.055 250.071C240.795 245.533 248.076 237.695 253.53 228.569C258.984 219.444 262.699 209.053 265.477 198.428C260.045 193.718 253.887 189.846 247.706 186" stroke="#2E2854" stroke-width="0.585365" stroke-miterlimit="10" stroke-linecap="round" stroke-linejoin="round"/>
<path d="M191.359 188.452C194.641 228.439 195.743 268.666 194.658 308.813C194.658 308.813 98.8516 309.55 98.4506 308.049C96.4674 267.06 97.418 224.273 98.1158 180.703L101.984 139.378C117.431 130.659 135.064 126.759 152.695 128.88C161.294 130.757 169.927 132.808 178.034 136.627C181.021 138.035 183.943 139.7 186.707 141.646L191.359 188.452Z" fill="#5767BF"/>
<path d="M155.141 152.95L167.786 132.7C162.82 131.152 157.751 129.984 152.695 128.88C147.269 128.228 141.843 128.15 136.48 128.603L155.141 152.95Z" fill="#E8614E"/>
<path d="M167.786 132.7C167.786 132.7 162.394 139.476 154.329 139.379C146.265 139.281 136.48 128.603 136.48 128.603L155.142 152.951L167.786 132.7Z" fill="white"/>
<path d="M167.023 169.799C165.905 169.218 164.439 169.774 163.845 171.016C163.251 172.259 163.632 174.008 164.67 174.762C165.709 175.516 167.242 175.138 167.915 173.952C168.589 172.764 168.488 170.561 167.023 169.799Z" fill="#2E2854"/>
<path d="M166.574 197.839C165.456 197.258 163.989 197.813 163.396 199.056C162.801 200.299 163.182 202.047 164.22 202.801C165.259 203.556 166.792 203.178 167.465 201.992C168.139 200.803 168.039 198.601 166.574 197.839Z" fill="#2E2854"/>
<path d="M155.142 152.951C157.191 204.331 158.249 257.462 158.313 308.983" stroke="#2E2854" stroke-width="0.585365" stroke-miterlimit="10" stroke-linecap="round" stroke-linejoin="round"/>
<path d="M133.462 128.91C140.747 136.988 147.857 144.872 155.142 152.95L146.044 123.594L133.462 128.91Z" fill="#5767BF"/>
<path d="M133.462 128.91C140.747 136.988 147.857 144.872 155.142 152.95L146.044 123.594L133.462 128.91Z" stroke="#2E2854" stroke-width="0.585365" stroke-miterlimit="10" stroke-linecap="round" stroke-linejoin="round"/>
<path d="M169.94 133.395L155.142 152.95L158.345 125.642L169.94 133.395Z" fill="#5767BF"/>
<path d="M169.94 133.395L155.142 152.95L158.345 125.642L169.94 133.395Z" stroke="#2E2854" stroke-width="0.585365" stroke-miterlimit="10" stroke-linecap="round" stroke-linejoin="round"/>
<path opacity="0.15" d="M194.078 232.338C188.523 214.735 176.193 199.021 155.958 197.332C125.889 194.822 113.435 235.39 113.435 235.39L97.374 231.389C97.2312 246.344 97.2107 261.154 97.4466 275.777C107.459 276.431 114.636 274.642 114.636 274.642C114.636 274.642 129.076 297.689 153.679 300.521C173.552 302.809 189.164 289.69 195.036 271.584C194.95 258.496 194.629 245.411 194.078 232.338Z" fill="#2E2854"/>
<path opacity="0.15" d="M104.32 178.688C104.32 178.688 101.49 179.563 98.1209 180.656L98.1162 180.703C98.0284 186.165 97.9371 191.614 97.8481 197.049L104.32 178.688Z" fill="#2E2854"/>
<path d="M191.359 188.452C194.641 228.439 195.743 268.666 194.658 308.813" stroke="#2E2854" stroke-width="0.585365" stroke-miterlimit="10" stroke-linecap="round" stroke-linejoin="round"/>
<path d="M180.604 211.923C168.005 199.322 148.333 197.338 134.045 207.225C119.753 217.112 111.918 238.126 115.499 256.969C119.078 275.813 133.802 291.064 150.353 293.075C166.903 295.085 184.033 283.699 190.901 266.128C197.772 248.551 194.267 225.586 180.604 211.923Z" fill="#F7A145"/>
<path d="M171.864 218.39C161.61 210.004 146.737 210.161 136.617 218.761C126.499 227.359 121.892 243.759 125.698 257.62C129.507 271.481 141.444 281.77 153.989 281.998C166.533 282.223 178.747 272.376 182.928 258.662C187.108 244.946 183.336 227.772 171.864 218.39Z" fill="#FF8330"/>
<path d="M156.866 243.82C157.517 243.961 158.168 244.122 158.822 244.302C159.474 244.482 160.109 244.703 160.722 244.964C161.335 245.225 161.914 245.542 162.458 245.91C163.002 246.279 163.485 246.734 163.911 247.271C164.333 247.808 164.685 248.44 164.957 249.163C165.233 249.886 165.409 250.738 165.492 251.717C165.616 253.166 165.522 254.553 165.21 255.876C164.897 257.199 164.372 258.399 163.639 259.479C162.906 260.556 161.974 261.471 160.841 262.226C159.71 262.98 158.385 263.512 156.87 263.823L156.873 266.692C156.883 267.121 156.755 267.525 156.485 267.902C156.219 268.281 155.857 268.496 155.394 268.548L153.144 268.805L153.138 264.04C151.599 263.924 150.11 263.58 148.672 263.013C147.234 262.445 146 261.703 144.964 260.788L146.587 257.388C146.726 257.111 146.92 256.868 147.175 256.663C147.43 256.457 147.709 256.337 148.011 256.302C148.33 256.266 148.659 256.324 149.003 256.477C149.351 256.631 149.727 256.819 150.138 257.041C150.55 257.263 151.001 257.491 151.494 257.719C151.985 257.949 152.535 258.121 153.142 258.237V249.519C152.167 249.321 151.191 249.07 150.214 248.766C149.237 248.461 148.345 248 147.533 247.384C146.724 246.767 146.037 245.943 145.479 244.912C144.921 243.882 144.571 242.55 144.432 240.915C144.33 239.709 144.439 238.509 144.766 237.317C145.09 236.122 145.616 235.021 146.349 234.014C147.081 233.005 148.014 232.139 149.15 231.415C150.283 230.693 151.612 230.199 153.134 229.933L153.134 227.366C153.123 226.934 153.251 226.53 153.521 226.153C153.787 225.776 154.149 225.562 154.612 225.509L156.863 225.252L156.871 229.783C158.318 229.927 159.581 230.283 160.659 230.854C161.74 231.423 162.667 232.058 163.444 232.755L162.158 235.468C161.969 235.876 161.764 236.182 161.548 236.383C161.334 236.585 161.068 236.704 160.75 236.74C160.554 236.762 160.314 236.733 160.034 236.648C159.755 236.565 159.45 236.461 159.122 236.337C158.793 236.212 158.438 236.083 158.06 235.95C157.685 235.814 157.286 235.701 156.866 235.612V243.82ZM153.138 235.85C152.54 236.027 152.045 236.246 151.649 236.506C151.253 236.767 150.936 237.057 150.704 237.378C150.474 237.697 150.312 238.044 150.224 238.415C150.135 238.788 150.11 239.172 150.143 239.568C150.22 240.47 150.532 241.17 151.078 241.671C151.627 242.171 152.313 242.567 153.136 242.858L153.138 235.85ZM156.868 257.95C159.006 257.29 159.975 255.782 159.776 253.432C159.701 252.547 159.401 251.875 158.878 251.417C158.352 250.962 157.682 250.604 156.861 250.342L156.868 257.95Z" fill="#F7A145"/>
<path opacity="0.15" d="M190.901 266.128C194.705 256.398 195.314 245.02 192.794 234.479C193.453 253.346 187.152 275.819 168.277 284.513C148.889 293.441 134.358 285.266 126.069 279.114C132.538 286.748 141.159 291.959 150.353 293.075C166.903 295.085 184.033 283.699 190.901 266.128Z" fill="#2E2854"/>
<path d="M134.045 207.225C124.043 214.145 117.222 226.517 115.245 239.778C117.83 230.17 123.661 215.131 140.485 207.569C152.146 202.328 165.088 203.609 177.055 208.836C164.521 199.094 147.059 198.22 134.045 207.225Z" fill="#F5B878"/>
<path d="M171.864 218.39C161.61 210.004 146.737 210.161 136.617 218.761C126.499 227.359 121.892 243.759 125.698 257.62C129.507 271.481 141.444 281.77 153.989 281.998C166.533 282.223 178.747 272.376 182.928 258.662C187.108 244.946 183.336 227.772 171.864 218.39Z" stroke="#2E2854" stroke-width="0.585365" stroke-miterlimit="10" stroke-linecap="round" stroke-linejoin="round"/>
<path d="M114.08 266.813C121.968 267.347 129.908 266.849 137.699 265.319C141.914 265.841 144.908 265.551 147.717 264.555C148.091 264.422 148.471 264.271 148.775 263.986C149.078 263.699 149.296 263.249 149.235 262.801C149.128 261.993 148.286 261.677 147.592 261.541C145.946 261.219 144.29 260.974 142.628 260.806V260.803C145.918 260.744 149.197 259.667 152.01 257.685C152.516 257.329 153.054 256.862 153.133 256.181C153.216 255.462 152.718 254.79 152.133 254.529C151.549 254.269 150.901 254.322 150.277 254.379C148.211 254.569 146.146 254.758 144.081 254.948C146.916 254.192 149.654 252.949 152.174 251.264C152.724 250.896 153.281 250.489 153.634 249.877C153.988 249.265 154.084 248.395 153.699 247.81C153.202 247.057 152.228 247.109 151.419 247.235C149.239 247.573 147.06 247.912 144.881 248.25C147.496 247.476 150.045 246.404 152.478 245.049C153.449 244.508 154.562 243.548 154.315 242.334C154.176 241.655 153.615 241.178 153.029 241.016C152.443 240.854 151.83 240.947 151.233 241.04C145.783 241.89 140.333 242.741 134.883 243.592C137.157 242.033 139.206 240.628 140.941 238.816C141.318 238.421 141.692 237.99 141.885 237.444C142.079 236.897 142.052 236.208 141.696 235.786C141.192 235.191 140.341 235.382 139.652 235.62C136.704 236.638 133.77 237.714 130.875 238.918C127.023 240.519 122.117 240.998 116.971 240.664L114.413 254.949L114.08 266.813Z" fill="#E8614E"/>
<path d="M144.882 248.25C142.903 248.836 140.888 249.251 138.856 249.488" stroke="#2E2854" stroke-width="0.585365" stroke-miterlimit="10" stroke-linecap="round" stroke-linejoin="round"/>
<path d="M140.267 255.661C141.55 255.521 142.825 255.282 144.081 254.947" stroke="#2E2854" stroke-width="0.585365" stroke-miterlimit="10" stroke-linecap="round" stroke-linejoin="round"/>
<path d="M140.156 260.654C140.976 260.77 141.802 260.819 142.628 260.804" stroke="#2E2854" stroke-width="0.585365" stroke-miterlimit="10" stroke-linecap="round" stroke-linejoin="round"/>
<path d="M115.883 266.917C123.177 267.265 130.502 266.732 137.699 265.319C141.914 265.841 144.908 265.551 147.717 264.555C148.091 264.422 148.471 264.271 148.776 263.986C149.079 263.699 149.296 263.249 149.236 262.801C149.128 261.993 148.286 261.677 147.592 261.541C145.946 261.219 144.29 260.974 142.628 260.806V260.803C145.918 260.744 149.197 259.667 152.01 257.685C152.516 257.329 153.054 256.862 153.133 256.181C153.216 255.462 152.718 254.79 152.134 254.529C151.549 254.269 150.901 254.322 150.277 254.379C148.211 254.569 146.146 254.758 144.081 254.948C146.916 254.192 149.654 252.949 152.174 251.264C152.724 250.896 153.281 250.489 153.635 249.877C153.988 249.265 154.085 248.395 153.699 247.81C153.203 247.057 152.229 247.109 151.419 247.235C149.24 247.573 147.06 247.912 144.881 248.25C147.497 247.476 150.046 246.404 152.479 245.049C153.449 244.508 154.562 243.548 154.315 242.334C154.177 241.655 153.615 241.178 153.029 241.016C152.443 240.854 151.83 240.947 151.233 241.04C145.783 241.89 140.333 242.74 134.883 243.592C137.158 242.033 139.207 240.628 140.941 238.816C141.319 238.421 141.692 237.99 141.885 237.444C142.08 236.897 142.053 236.208 141.697 235.786C141.192 235.191 140.342 235.382 139.652 235.62C136.704 236.638 133.77 237.714 130.876 238.918C129.411 239.527 127.794 239.973 126.069 240.275" stroke="#2E2854" stroke-width="0.585365" stroke-miterlimit="10" stroke-linecap="round" stroke-linejoin="round"/>
<path d="M102.308 265.239C106.203 266.021 110.134 266.546 114.08 266.813C116.364 258.386 117.348 249.486 116.971 240.663C114.721 240.517 112.426 240.216 110.153 239.785L102.308 265.239Z" fill="white"/>
<path d="M104.32 178.688C94.2497 188.144 88.2292 203.138 88.4721 218.161C88.547 222.779 89.2741 227.632 91.8233 231.182C94.1531 234.429 97.6881 236.149 101.173 237.376C104.011 238.375 107.061 239.2 110.152 239.786L110.153 239.78C109.654 249.895 108.078 259.961 104.589 270.71C90.4173 268.325 76.9797 259.767 68.0897 246.748C59.1998 233.73 55.0899 216.312 57.5877 199.962C59.5633 187.032 65.4351 175.233 72.8212 165.279C80.8618 154.443 90.8557 145.659 101.984 139.378L104.32 178.688Z" fill="#5767BF"/>
<path opacity="0.15" d="M106.169 265.408C75.3002 250.672 62.2905 227.577 56.9736 213.247C57.6439 225.342 61.5851 237.223 68.0903 246.748C76.9802 259.766 90.4173 268.325 104.59 270.71C105.168 268.924 105.691 267.159 106.169 265.408Z" fill="#2E2854"/>
<path d="M100.282 258.883C99.1642 258.302 97.6979 258.858 97.1043 260.101C96.5108 261.345 96.8907 263.092 97.9291 263.846C98.9681 264.6 100.501 264.223 101.175 263.036C101.848 261.848 101.747 259.646 100.282 258.883Z" fill="#2E2854"/>
<path d="M110.153 239.78C109.654 249.895 108.079 259.961 104.589 270.71C90.4178 268.325 76.9801 259.767 68.0902 246.748C59.2003 233.73 55.0904 216.312 57.5882 199.962" stroke="#2E2854" stroke-width="0.585365" stroke-miterlimit="10" stroke-linecap="round" stroke-linejoin="round"/>
</g>
<path d="M362.608 138.167C342.317 131.332 322.026 124.498 301.734 117.665L304.99 107.017L342.863 108.108L372.938 130.213L362.608 138.167Z" fill="#F5F5F5" fill-opacity="0.9"/>
<path d="M372.938 130.213C367.556 108.527 360.637 87.3539 352.271 66.9796C335.502 78.5378 319.822 92.2055 304.99 107.018C305.047 106.959 318.641 111.591 333.652 116.73L283.599 273.783L240.985 250.377L208.908 308.228L69.707 310.119L69.8376 323.011L215.024 321.039L245.055 266.878L289.818 291.465L344.34 120.393C359.357 125.542 372.938 130.213 372.938 130.213Z" fill="white"/>
<path d="M208.908 308.227L206.989 291.546L84.2042 292.027L69.707 310.118L208.908 308.227Z" fill="#F5F5F5" fill-opacity="0.9"/>
<path d="M239.745 234.638L240.985 250.376L208.908 308.227L206.989 291.546L239.745 234.638Z" fill="#F5F5F5" fill-opacity="0.9"/>
<path d="M275.8 254.034L283.6 273.782L240.985 250.376L239.745 234.638L275.8 254.034Z" fill="#F5F5F5" fill-opacity="0.9"/>
<path d="M333.653 116.729L319.525 123.657L275.799 254.034L283.599 273.782L333.653 116.729Z" fill="#F5F5F5" fill-opacity="0.9"/>
<path d="M211.891 21.9557C210.795 21.0278 209.071 21.3319 208.263 22.5957C207.454 23.8588 207.702 25.8584 208.784 26.8066C209.867 27.7548 211.594 27.4853 212.421 26.2385C213.248 24.991 213.058 22.9425 211.891 21.9557Z" fill="#F2D3E8"/>
<path d="M315.04 286.806C313.943 285.878 312.22 286.182 311.412 287.446C310.603 288.709 310.851 290.708 311.933 291.657C313.016 292.605 314.742 292.335 315.57 291.089C316.397 289.841 316.208 287.793 315.04 286.806Z" fill="#F2D3E8"/>
<path d="M30.1639 289.841C29.0675 288.913 27.3442 289.217 26.5364 290.481C25.7274 291.744 25.975 293.744 27.0574 294.692C28.1397 295.64 29.8665 295.371 30.6942 294.124C31.5208 292.876 31.3311 290.829 30.1639 289.841Z" fill="#F2D3E8"/>
<path d="M386.221 155.526C385.124 154.598 383.401 154.902 382.593 156.166C381.784 157.429 382.032 159.429 383.114 160.377C384.196 161.325 385.923 161.056 386.751 159.809C387.577 158.561 387.388 156.513 386.221 155.526Z" fill="#F2D3E8"/>
<path d="M388.395 231.244C387.298 230.316 385.575 230.62 384.767 231.884C383.958 233.147 384.206 235.147 385.288 236.095C386.371 237.043 388.097 236.773 388.925 235.527C389.752 234.279 389.562 232.231 388.395 231.244Z" fill="#F2D3E8"/>
<path d="M97.8993 26.1561C96.8029 25.2283 95.0796 25.5323 94.2718 26.7961C93.4628 28.0593 93.7104 30.0588 94.7927 31.007C95.8751 31.9552 97.6019 31.6858 98.4296 30.4389C99.2567 29.1914 99.0671 27.1437 97.8993 26.1561Z" fill="#F2D3E8"/>
<path d="M92.7572 75.6198C91.6608 74.692 89.9375 74.9961 89.1297 76.2599C88.3207 77.523 88.5683 79.5226 89.6506 80.4708C90.733 81.419 92.4598 81.1495 93.2869 79.9027C94.114 78.6551 93.925 76.6067 92.7572 75.6198Z" fill="white"/>
<path d="M291.381 132.121C290.284 131.193 288.561 131.497 287.753 132.761C286.944 134.024 287.192 136.024 288.274 136.972C289.357 137.92 291.083 137.651 291.911 136.404C292.738 135.157 292.549 133.109 291.381 132.121Z" fill="white"/>
<path d="M4.10531 124.836C3.00892 123.909 1.28561 124.213 0.477808 125.476C-0.331166 126.74 -0.0835571 128.739 0.998782 129.687C2.08112 130.636 3.80795 130.366 4.63565 129.119C5.46219 127.872 5.27253 125.824 4.10531 124.836Z" fill="#F2D3E8"/>
<path d="M76.063 43.5225C75.4361 42.9924 74.4521 43.1662 73.9896 43.8884C73.5278 44.6105 73.6689 45.7528 74.2876 46.2952C74.9063 46.8375 75.8932 46.6834 76.3662 45.9707C76.8386 45.2574 76.7303 44.0872 76.063 43.5225Z" fill="#F2D3E8"/>
<path d="M233.498 177.599C232.871 177.069 231.887 177.243 231.425 177.965C230.963 178.687 231.104 179.83 231.723 180.372C232.341 180.914 233.328 180.76 233.801 180.047C234.274 179.335 234.165 178.164 233.498 177.599Z" fill="white"/>
<path d="M323.344 220.414C322.717 219.884 321.733 220.057 321.271 220.78C320.809 221.502 320.95 222.644 321.569 223.186C322.188 223.729 323.174 223.575 323.647 222.862C324.12 222.149 324.012 220.978 323.344 220.414Z" fill="white"/>
<path d="M70.584 262.541C69.9571 262.011 68.9731 262.185 68.5106 262.907C68.0488 263.629 68.1899 264.771 68.8086 265.314C69.4273 265.856 70.4142 265.702 70.8872 264.989C71.3596 264.276 71.2507 263.105 70.584 262.541Z" fill="white"/>
<path d="M41.9575 206.544C41.3306 206.014 40.3466 206.187 39.8842 206.91C39.4223 207.632 39.5634 208.774 40.1821 209.316C40.8008 209.859 41.7878 209.705 42.2607 208.992C42.7337 208.279 42.6248 207.108 41.9575 206.544Z" fill="white"/>
<path d="M211.233 65.584C210.606 65.0539 209.622 65.2276 209.16 65.9498C208.698 66.672 208.839 67.8143 209.458 68.3566C210.077 68.8989 211.064 68.7449 211.537 68.0322C212.009 67.3188 211.9 66.1487 211.233 65.584Z" fill="white"/>
<path d="M307.992 295.83C307.365 295.3 306.381 295.474 305.919 296.196C305.457 296.918 305.598 298.061 306.217 298.603C306.836 299.145 307.822 298.991 308.295 298.278C308.768 297.565 308.66 296.394 307.992 295.83Z" fill="#F2D3E8"/>
<path d="M58.6167 297.533C57.9898 297.003 57.0058 297.177 56.5433 297.899C56.0815 298.621 56.2226 299.763 56.8413 300.306C57.46 300.848 58.4469 300.694 58.9199 299.981C59.3923 299.268 59.284 298.097 58.6167 297.533Z" fill="#F2D3E8"/>
<path d="M377.85 100.994C377.223 100.464 376.239 100.637 375.776 101.36C375.314 102.082 375.455 103.224 376.074 103.766C376.693 104.309 377.68 104.155 378.153 103.442C378.625 102.729 378.517 101.558 377.85 100.994Z" fill="#F2D3E8"/>
</svg>
