<svg width="584" height="150" viewBox="0 0 584 150" fill="none" xmlns="http://www.w3.org/2000/svg">
<path d="M99.4808 28.8358L105.591 42.2858L72.9536 56.9603L77.0355 66.512L109.902 51.2812L115.741 64.432L125.403 37.6716L99.4808 28.8358Z" fill="white"/>
<path d="M76.354 92.9234V80.2641L107.191 66.1982V78.1542L76.354 92.9234Z" fill="white"/>
<path d="M41.832 39.4923L79.5326 62.4091" stroke="white" stroke-width="9.61946"/>
<path d="M76.5664 116.144V104.8L89.4617 97.7227V108.776L76.5664 116.144Z" fill="white"/>
<path d="M63.5306 115.634C54.9725 113.91 45.5731 109.767 39.3556 103.639C33.1381 97.5104 28.8425 89.702 26.9947 81.1697C25.1469 72.6374 25.8271 63.7514 28.9521 55.5997C32.077 47.448 37.2138 40.5827 44.2916 35.4719L50.9866 44.1338C45.6318 48.0003 41.5207 53.3444 39.1565 59.5115C36.7924 65.6787 36.2777 72.4014 37.6757 78.8566C39.0737 85.3117 42.3235 91.2192 47.0274 95.8557C51.7312 100.492 57.0559 103.908 63.5306 105.213L63.5306 115.634Z" fill="white"/>
<path d="M181.743 56.9576V97.8698H175.032V69.8494L162.553 97.8698H157.902L145.364 69.8494V97.8698H138.653V56.9576H145.894L160.257 89.0398L174.561 56.9576H181.743ZM209.224 98.2818C205.417 98.2818 201.905 97.3988 198.687 95.6328C195.508 93.8276 192.977 91.3356 191.093 88.1568C189.249 84.9388 188.327 81.3283 188.327 77.3254C188.327 73.3225 189.249 69.7316 191.093 66.5529C192.977 63.3741 195.508 60.9017 198.687 59.1357C201.905 57.3305 205.417 56.4278 209.224 56.4278C213.07 56.4278 216.582 57.3305 219.761 59.1357C222.979 60.9017 225.51 63.3741 227.355 66.5529C229.199 69.7316 230.122 73.3225 230.122 77.3254C230.122 81.3283 229.199 84.9388 227.355 88.1568C225.51 91.3356 222.979 93.8276 219.761 95.6328C216.582 97.3988 213.07 98.2818 209.224 98.2818ZM209.224 92.454C211.932 92.454 214.345 91.8458 216.465 90.6292C218.584 89.3734 220.232 87.6074 221.409 85.3312C222.626 83.0158 223.234 80.3472 223.234 77.3254C223.234 74.3036 222.626 71.6546 221.409 69.3784C220.232 67.1023 218.584 65.3559 216.465 64.1393C214.345 62.9228 211.932 62.3145 209.224 62.3145C206.516 62.3145 204.103 62.9228 201.984 64.1393C199.864 65.3559 198.196 67.1023 196.98 69.3784C195.803 71.6546 195.214 74.3036 195.214 77.3254C195.214 80.3472 195.803 83.0158 196.98 85.3312C198.196 87.6074 199.864 89.3734 201.984 90.6292C204.103 91.8458 206.516 92.454 209.224 92.454ZM255.386 98.2818C251.579 98.2818 248.067 97.3988 244.849 95.6328C241.67 93.8276 239.139 91.3356 237.255 88.1568C235.411 84.9388 234.488 81.3283 234.488 77.3254C234.488 73.3225 235.411 69.7316 237.255 66.5529C239.139 63.3741 241.67 60.9017 244.849 59.1357C248.067 57.3305 251.579 56.4278 255.386 56.4278C259.232 56.4278 262.744 57.3305 265.923 59.1357C269.141 60.9017 271.672 63.3741 273.517 66.5529C275.361 69.7316 276.283 73.3225 276.283 77.3254C276.283 81.3283 275.361 84.9388 273.517 88.1568C271.672 91.3356 269.141 93.8276 265.923 95.6328C262.744 97.3988 259.232 98.2818 255.386 98.2818ZM255.386 92.454C258.094 92.454 260.507 91.8458 262.626 90.6292C264.746 89.3734 266.394 87.6074 267.571 85.3312C268.788 83.0158 269.396 80.3472 269.396 77.3254C269.396 74.3036 268.788 71.6546 267.571 69.3784C266.394 67.1023 264.746 65.3559 262.626 64.1393C260.507 62.9228 258.094 62.3145 255.386 62.3145C252.678 62.3145 250.264 62.9228 248.145 64.1393C246.026 65.3559 244.358 67.1023 243.142 69.3784C241.964 71.6546 241.376 74.3036 241.376 77.3254C241.376 80.3472 241.964 83.0158 243.142 85.3312C244.358 87.6074 246.026 89.3734 248.145 90.6292C250.264 91.8458 252.678 92.454 255.386 92.454ZM316.5 97.8698H309.789L289.598 67.3181V97.8698H282.887V56.8988H289.598L309.789 87.3915V56.8988H316.5V97.8698ZM364.68 56.9576V62.4322H347.314V74.4998H360.854V79.9744H347.314V97.8698H340.604V56.9576H364.68ZM377.61 56.9576V97.8698H370.899V56.9576H377.61ZM420.033 97.8698H413.322L393.131 67.3181V97.8698H386.42V56.8988H393.131L413.322 87.3915V56.8988H420.033V97.8698ZM453.511 89.5107H436.381L433.437 97.8698H426.432L441.09 56.8988H448.86L463.518 97.8698H456.454L453.511 89.5107ZM451.627 84.0362L444.975 65.0223L438.264 84.0362H451.627ZM503.504 97.8698H496.793L476.602 67.3181V97.8698H469.891V56.8988H476.602L496.793 87.3915V56.8988H503.504V97.8698ZM510.079 77.3254C510.079 73.3225 511.002 69.7316 512.846 66.5529C514.73 63.3741 517.261 60.9017 520.44 59.1357C523.658 57.3305 527.17 56.4278 530.977 56.4278C535.333 56.4278 539.199 57.5071 542.574 59.6655C545.988 61.7847 548.46 64.8065 549.991 68.7309H541.926C540.866 66.5725 539.395 64.9635 537.511 63.9039C535.627 62.8443 533.449 62.3145 530.977 62.3145C528.269 62.3145 525.855 62.9228 523.736 64.1393C521.617 65.3559 519.949 67.1023 518.733 69.3784C517.555 71.6546 516.967 74.3036 516.967 77.3254C516.967 80.3472 517.555 82.9962 518.733 85.2724C519.949 87.5485 521.617 89.3145 523.736 90.5703C525.855 91.7869 528.269 92.3952 530.977 92.3952C533.449 92.3952 535.627 91.8654 537.511 90.8058C539.395 89.7462 540.866 88.1372 541.926 85.9788H549.991C548.46 89.9032 545.988 92.925 542.574 95.0442C539.199 97.1634 535.333 98.2229 530.977 98.2229C527.131 98.2229 523.619 97.34 520.44 95.574C517.261 93.7687 514.73 91.2767 512.846 88.0979C511.002 84.9192 510.079 81.3283 510.079 77.3254ZM564.556 62.3733V74.3821H578.684V79.8567H564.556V92.3952H580.45V97.8698H557.846V56.8988H580.45V62.3733H564.556Z" fill="white"/>
</svg>
