<svg width="33" height="33" viewBox="0 0 33 33" fill="none" xmlns="http://www.w3.org/2000/svg">
<path d="M30.8 0H1.28333C0.57349 0 0 0.57349 0 1.28333V30.8C0 31.5098 0.57349 32.0833 1.28333 32.0833H30.8C31.5098 32.0833 32.0833 31.5098 32.0833 30.8V1.28333C32.0833 0.57349 31.5098 0 30.8 0ZM9.51672 27.339H4.75635V12.0272H9.51672V27.339ZM7.13854 9.9338C6.59283 9.9338 6.05937 9.77198 5.60563 9.4688C5.15189 9.16562 4.79824 8.73469 4.5894 8.23052C4.38057 7.72635 4.32593 7.17157 4.43239 6.63635C4.53885 6.10112 4.80164 5.60949 5.18752 5.22361C5.57339 4.83773 6.06503 4.57495 6.60026 4.46848C7.13548 4.36202 7.69026 4.41666 8.19443 4.6255C8.6986 4.83433 9.12952 5.18798 9.4327 5.64172C9.73589 6.09547 9.89771 6.62892 9.89771 7.17463C9.8937 8.69859 8.65849 9.9338 7.13854 9.9338ZM27.339 27.339H22.5827V19.8917C22.5827 18.1151 22.5506 15.8331 20.1082 15.8331C17.6338 15.8331 17.2528 17.7661 17.2528 19.7633V27.339H12.5005V12.0272H17.0643V14.1207H17.1285C17.7621 12.9176 19.3142 11.6462 21.6322 11.6462C26.4527 11.6462 27.339 14.8185 27.339 18.9412V27.339Z" fill="#F8F8F8"/>
</svg>
