<svg width="33" height="33" viewBox="0 0 33 33" fill="none" xmlns="http://www.w3.org/2000/svg">
<g clip-path="url(#clip0_1185_663)">
<path d="M17.6898 0.000366211C19.4944 0.00517859 20.4103 0.0148034 21.2011 0.0372612L21.5123 0.04849C21.8716 0.061323 22.2261 0.0773643 22.6544 0.0966138C24.3612 0.17682 25.5257 0.446314 26.5476 0.842533C27.6062 1.24998 28.4981 1.8018 29.39 2.69209C30.206 3.49373 30.8372 4.46381 31.2395 5.53461C31.6357 6.55644 31.9052 7.72103 31.9854 9.42943C32.0047 9.85613 32.0207 10.2106 32.0335 10.5716L32.0432 10.8828C32.0672 11.672 32.0768 12.588 32.08 14.3926L32.0816 15.5893V17.6907C32.0856 18.8607 32.0733 20.0308 32.0448 21.2005L32.0351 21.5117C32.0223 21.8726 32.0063 22.2272 31.987 22.6539C31.9068 24.3623 31.6341 25.5252 31.2395 26.5487C30.8372 27.6195 30.206 28.5896 29.39 29.3912C28.5884 30.2072 27.6183 30.8384 26.5476 31.2408C25.5257 31.637 24.3612 31.9065 22.6544 31.9867L21.5123 32.0348L21.2011 32.0444C20.4103 32.0669 19.4944 32.0781 17.6898 32.0813L16.4931 32.0829H14.3934C13.2228 32.0871 12.0523 32.0747 10.8821 32.046L10.5709 32.0364C10.1901 32.022 9.80936 32.0054 9.42875 31.9867C7.722 31.9065 6.55744 31.637 5.53403 31.2408C4.46383 30.8382 3.49434 30.207 2.6932 29.3912C1.87663 28.5897 1.24488 27.6196 0.842081 26.5487C0.445872 25.5268 0.176385 24.3623 0.0961809 22.6539L0.0480584 21.5117L0.0400381 21.2005C0.0104685 20.0308 -0.00290033 18.8608 -6.41634e-05 17.6907V14.3926C-0.0045041 13.2226 0.00726044 12.0525 0.0352258 10.8828L0.0464544 10.5716C0.0592871 10.2106 0.0753279 9.85613 0.0945769 9.42943C0.174781 7.72103 0.444267 6.55804 0.840477 5.53461C1.24422 4.46337 1.87707 3.49325 2.6948 2.69209C3.49548 1.87647 4.46441 1.24529 5.53403 0.842533C6.55744 0.446314 7.7204 0.17682 9.42875 0.0966138C9.85544 0.0773643 10.2115 0.061323 10.5709 0.04849L10.8821 0.0388652C12.0517 0.0103643 13.2218 -0.00193523 14.3918 0.00197022L17.6898 0.000366211ZM16.0408 8.021C13.9136 8.021 11.8736 8.86603 10.3695 10.3702C8.86537 11.8744 8.02036 13.9144 8.02036 16.0416C8.02036 18.1688 8.86537 20.2089 10.3695 21.7131C11.8736 23.2173 13.9136 24.0623 16.0408 24.0623C18.1679 24.0623 20.208 23.2173 21.7121 21.7131C23.2162 20.2089 24.0612 18.1688 24.0612 16.0416C24.0612 13.9144 23.2162 11.8744 21.7121 10.3702C20.208 8.86603 18.1679 8.021 16.0408 8.021ZM16.0408 11.2293C16.6727 11.2292 17.2985 11.3535 17.8824 11.5953C18.4663 11.837 18.9969 12.1914 19.4438 12.6382C19.8907 13.085 20.2453 13.6155 20.4872 14.1993C20.7292 14.7831 20.8537 15.4089 20.8539 16.0408C20.854 16.6728 20.7296 17.2986 20.4878 17.8825C20.2461 18.4664 19.8917 18.997 19.4449 19.4439C18.9982 19.8909 18.4677 20.2455 17.8839 20.4874C17.3001 20.7293 16.6744 20.8539 16.0424 20.854C14.7661 20.854 13.5421 20.347 12.6396 19.4445C11.7371 18.542 11.2301 17.318 11.2301 16.0416C11.2301 14.7653 11.7371 13.5413 12.6396 12.6388C13.5421 11.7363 14.7661 11.2293 16.0424 11.2293M24.4638 5.61481C23.9321 5.61481 23.4221 5.82607 23.046 6.20211C22.67 6.57815 22.4587 7.08817 22.4587 7.61997C22.4587 8.15177 22.67 8.66179 23.046 9.03784C23.4221 9.41388 23.9321 9.62513 24.4638 9.62513C24.9956 9.62513 25.5056 9.41388 25.8817 9.03784C26.2577 8.66179 26.469 8.15177 26.469 7.61997C26.469 7.08817 26.2577 6.57815 25.8817 6.20211C25.5056 5.82607 24.9956 5.61481 24.4638 5.61481Z" fill="#F8F8F8"/>
</g>
<defs>
<clipPath id="clip0_1185_663">
<rect width="32.0833" height="32.0833" fill="white"/>
</clipPath>
</defs>
</svg>
